<svg xmlns="http://www.w3.org/2000/svg" viewBox="0 0 1200 700" fill="none">
  <g stroke="#c1633b" stroke-width="1" opacity="0.55">
    <path d="M -50,120 C 150,60 300,140 480,90 C 660,40 820,110 1000,70 C 1120,45 1200,80 1260,60" />
    <path d="M -50,190 C 130,150 320,220 500,170 C 690,115 830,190 1010,150 C 1130,125 1200,160 1260,140" />
    <path d="M -50,260 C 160,210 300,290 470,250 C 650,205 810,270 990,235 C 1110,210 1200,245 1260,225" />
    <path d="M -50,335 C 140,290 330,365 510,315 C 700,260 840,335 1020,300 C 1140,275 1200,310 1260,290" />
  </g>
  <g stroke="#d68258" stroke-width="1" opacity="0.4">
    <path d="M -50,410 C 150,365 310,435 490,390 C 670,340 820,405 1000,370 C 1120,345 1200,380 1260,360" />
    <path d="M -50,480 C 160,430 320,505 500,455 C 690,400 830,470 1010,435 C 1130,410 1200,445 1260,425" />
    <path d="M -50,545 C 130,505 300,570 470,525 C 650,480 810,540 990,510 C 1110,485 1200,515 1260,500" />
  </g>
  <g stroke="#a89684" stroke-width="0.75" opacity="0.3">
    <path d="M -50,50 C 170,10 340,70 520,30 C 700,-10 850,50 1030,15 C 1140,-5 1200,20 1260,5" />
    <path d="M -50,610 C 150,570 320,635 500,590 C 690,540 830,605 1010,570 C 1130,545 1200,580 1260,560" />
  </g>
</svg>
